<svg width="24" height="24" viewBox="0 0 24 24" fill="none" xmlns="http://www.w3.org/2000/svg">
<path d="M11.708 1.23737C11.7807 0.929232 12.2193 0.929231 12.292 1.23737L14.2484 9.52849C14.2745 9.6391 14.3609 9.72547 14.4715 9.75157L22.7626 11.708C23.0708 11.7807 23.0708 12.2193 22.7626 12.292L14.4715 14.2484C14.3609 14.2745 14.2745 14.3609 14.2484 14.4715L12.292 22.7626C12.2193 23.0708 11.7807 23.0708 11.708 22.7627L9.75156 14.4715C9.72546 14.3609 9.6391 14.2745 9.52848 14.2484L1.23736 12.292C0.92923 12.2193 0.92923 11.7807 1.23736 11.708L9.52848 9.75157C9.6391 9.72547 9.72546 9.6391 9.75156 9.52849L11.708 1.23737Z" fill="#31F413"/>
<path d="M20.1978 0.618684C20.2341 0.464616 20.4534 0.464616 20.4897 0.618683L20.9489 2.56455C20.962 2.61986 21.0051 2.66304 21.0605 2.67609L23.0063 3.13526C23.1604 3.17162 23.1604 3.39089 23.0063 3.42724L21.0605 3.88641C21.0051 3.89946 20.962 3.94264 20.9489 3.99795L20.4897 5.94382C20.4534 6.09789 20.2341 6.09789 20.1978 5.94382L19.7386 3.99795C19.7255 3.94264 19.6824 3.89946 19.6271 3.88641L17.6812 3.42724C17.5271 3.39089 17.5271 3.17162 17.6812 3.13526L19.6271 2.67609C19.6824 2.66304 19.7255 2.61986 19.7386 2.56455L20.1978 0.618684Z" fill="#31F413"/>
</svg>
