<svg width="26" height="15" viewBox="0 0 26 15" fill="none" xmlns="http://www.w3.org/2000/svg">
<path fill-rule="evenodd" clip-rule="evenodd" d="M5.09257 7.2929L8.12917 10.3295C8.24275 10.4353 8.33385 10.563 8.39704 10.7048C8.46023 10.8466 8.4942 10.9997 8.49694 11.1549C8.49968 11.3101 8.47112 11.4643 8.41298 11.6083C8.35484 11.7522 8.26829 11.883 8.15852 11.9927C8.04874 12.1025 7.91797 12.1891 7.77402 12.2472C7.63007 12.3054 7.47589 12.3339 7.32066 12.3312C7.16544 12.3284 7.01235 12.2945 6.87054 12.2313C6.72873 12.1681 6.6011 12.077 6.49527 11.9634L1.48565 6.95379L0.668701 6.13684L1.48565 5.31989L6.49527 0.310275C6.71442 0.106068 7.00428 -0.00510421 7.30378 0.00018011C7.60327 0.00546443 7.88903 0.126793 8.10084 0.338604C8.31265 0.550415 8.43398 0.836171 8.43927 1.13567C8.44455 1.43517 8.33338 1.72503 8.12917 1.94418L5.09257 4.98077H20.3218C21.6504 4.98077 22.9246 5.50857 23.8641 6.44806C24.8036 7.38754 25.3314 8.66176 25.3314 9.99039C25.3314 11.319 24.8036 12.5932 23.8641 13.5327C22.9246 14.4722 21.6504 15 20.3218 15H17.239C16.9324 15 16.6383 14.8782 16.4215 14.6614C16.2047 14.4446 16.0829 14.1505 16.0829 13.8439C16.0829 13.5373 16.2047 13.2433 16.4215 13.0265C16.6383 12.8097 16.9324 12.6879 17.239 12.6879H20.3218C21.0372 12.6879 21.7233 12.4037 22.2292 11.8978C22.7351 11.3919 23.0193 10.7058 23.0193 9.99039C23.0193 9.27497 22.7351 8.58885 22.2292 8.08298C21.7233 7.5771 21.0372 7.2929 20.3218 7.2929H5.09257Z" fill="white"/>
</svg>
