<svg width="24" height="23" viewBox="0 0 24 23" fill="none" xmlns="http://www.w3.org/2000/svg">
<path d="M11.9999 0C10.4522 0 8.91963 0.304841 7.48975 0.897119C6.05986 1.4894 4.76064 2.35751 3.66625 3.4519C1.45604 5.66211 0.214355 8.6598 0.214355 11.7855C0.214355 16.9947 3.5968 21.4143 8.27565 22.9817C8.86492 23.076 9.05349 22.7107 9.05349 22.3925V20.4007C5.7889 21.1078 5.09356 18.8215 5.09356 18.8215C4.55142 17.4543 3.78537 17.089 3.78537 17.089C2.71288 16.3583 3.86786 16.3819 3.86786 16.3819C5.04641 16.4644 5.67105 17.5958 5.67105 17.5958C6.69639 19.3872 8.42886 18.8568 9.10063 18.574C9.2067 17.8079 9.51312 17.2893 9.84312 16.9947C7.22673 16.7001 4.48071 15.6865 4.48071 11.1962C4.48071 9.88804 4.92856 8.83913 5.69462 8.00236C5.57676 7.70772 5.16427 6.48203 5.81247 4.89099C5.81247 4.89099 6.80246 4.57278 9.05349 6.09311C9.98454 5.83383 10.9981 5.70419 11.9999 5.70419C13.0016 5.70419 14.0152 5.83383 14.9462 6.09311C17.1973 4.57278 18.1873 4.89099 18.1873 4.89099C18.8355 6.48203 18.423 7.70772 18.3051 8.00236C19.0712 8.83913 19.519 9.88804 19.519 11.1962C19.519 15.6983 16.7612 16.6883 14.133 16.9829C14.5573 17.3483 14.9462 18.0672 14.9462 19.1632V22.3925C14.9462 22.7107 15.1348 23.0878 15.7359 22.9817C20.4147 21.4025 23.7854 16.9947 23.7854 11.7855C23.7854 10.2378 23.4805 8.70527 22.8883 7.27539C22.296 5.84551 21.4279 4.54628 20.3335 3.4519C19.2391 2.35751 17.9399 1.4894 16.51 0.897119C15.0801 0.304841 13.5476 0 11.9999 0Z" fill="black"/>
</svg>
