<svg width="26" height="26" viewBox="0 0 26 26" fill="none" xmlns="http://www.w3.org/2000/svg">
<path fill-rule="evenodd" clip-rule="evenodd" d="M13 0C5.8203 0 0 5.8203 0 13C0 20.1797 5.8203 26 13 26C20.1797 26 26 20.1797 26 13C26 5.8203 20.1797 0 13 0ZM11.8899 19.2981C12.5582 19.9744 13.3616 20.3125 14.3 20.3125C15.2384 20.3125 16.0418 19.9744 16.7101 19.2981C17.3784 18.6219 17.7125 17.809 17.7125 16.8594V10.7961C17.7125 9.85376 18.4764 9.08984 19.4188 9.08984H19.8301C20.5452 9.08984 21.125 8.51009 21.125 7.79492C21.125 7.07976 20.5452 6.5 19.8301 6.5H18.5656C17.1521 6.5 16.0063 7.64587 16.0063 9.05937V13.0028C16.0063 13.3862 15.5752 13.6302 15.2064 13.525C14.9292 13.4458 14.627 13.4062 14.3 13.4062C13.3616 13.4062 12.5582 13.7444 11.8899 14.4206C11.2216 15.0968 10.8875 15.9098 10.8875 16.8594C10.8875 17.809 11.2216 18.6219 11.8899 19.2981ZM4.09551 16.0071C4.05869 16.4768 4.44446 16.8594 4.91563 16.8594C5.38679 16.8594 5.7641 16.4765 5.80793 16.0074C5.88997 15.1293 6.10086 14.2946 6.44059 13.5034C6.88848 12.4602 7.49988 11.5466 8.2748 10.7625C9.04973 9.9783 9.95617 9.35962 10.9941 8.9064C11.7728 8.5664 12.5874 8.35394 13.4381 8.269C13.9125 8.22162 14.3 7.84006 14.3 7.36328C14.3 6.8865 13.9128 6.49595 13.4376 6.53504C12.3477 6.62469 11.3093 6.88638 10.3223 7.32012C9.07816 7.86686 7.99398 8.60785 7.06977 9.54307C6.14555 10.4783 5.41328 11.5754 4.87297 12.8343C4.4417 13.8392 4.18255 14.8968 4.09551 16.0071ZM7.52527 16.0082C7.46902 16.476 7.85696 16.8594 8.32812 16.8594C8.79929 16.8594 9.17313 16.4751 9.24288 16.0091C9.40401 14.9325 9.88112 13.993 10.6742 13.1904C11.4624 12.3929 12.3843 11.9111 13.44 11.7451C13.911 11.6711 14.3 11.2932 14.3 10.8164C14.3 10.3396 13.912 9.94681 13.4389 10.0056C12.8174 10.0828 12.2229 10.2451 11.6553 10.4927C10.8306 10.8524 10.109 11.3452 9.49051 11.971C8.87199 12.5969 8.38144 13.3307 8.01887 14.1724C7.76652 14.7582 7.60199 15.3701 7.52527 16.0082Z" fill="white"/>
</svg>
