<svg width="20" height="20" viewBox="0 0 20 20" fill="none" xmlns="http://www.w3.org/2000/svg">
<path fill-rule="evenodd" stroke-width="3" clip-rule="evenodd" d="M0.431602 0.304803C0.618125 0.143405 0.848223 0.0407873 1.09293 0.00986459C1.33765 -0.0210581 1.58604 0.0210962 1.80685 0.131022L19.31 8.88258C19.5173 8.98652 19.6917 9.14612 19.8136 9.34351C19.9355 9.5409 20 9.7683 20 10.0003C20 10.2323 19.9355 10.4597 19.8136 10.6571C19.6917 10.8544 19.5173 11.014 19.31 11.118L1.80685 19.8695C1.58607 19.9807 1.33724 20.0236 1.09198 19.993C0.846727 19.9624 0.616114 19.8595 0.429451 19.6975C0.242787 19.5355 0.108502 19.3216 0.0436595 19.0831C-0.021183 18.8446 -0.0136549 18.5922 0.065287 18.358L2.56573 10.8567C2.63811 10.6392 2.76886 10.4458 2.94371 10.2977C3.11856 10.1495 3.33077 10.0522 3.55716 10.0165L3.65343 10.0015L3.55716 9.98653C3.33077 9.95081 3.11856 9.85356 2.94371 9.70539C2.76886 9.55722 2.63811 9.36384 2.56573 9.14638L0.065287 1.64504C-0.0125232 1.4108 -0.0192587 1.15878 0.0459294 0.920717C0.111117 0.682659 0.245312 0.469222 0.431602 0.307304V0.304803ZM9.73326 9.69398C10.0858 9.74899 10.0858 10.2566 9.73326 10.3116L3.74469 11.253L1.24425 18.7543L18.7474 10.0028L1.24425 1.25122L3.74469 8.75256L9.73326 9.69398Z" fill="#31F413"/>
</svg>
